<svg version="1.1" xmlns="http://www.w3.org/2000/svg" xmlns:xlink="http://www.w3.org/1999/xlink" width="142.45212" height="104.53328" viewBox="-0.45176,0,142.45212,104.53328"><g transform="translate(-169.49976,-123)"><g data-paper-data="{&quot;isPaintingLayer&quot;:true}" fill="#00ff21" fill-rule="nonzero" stroke="#000000" stroke-width="2" stroke-linecap="butt" stroke-linejoin="miter" stroke-miterlimit="10" stroke-dasharray="" stroke-dashoffset="0" style="mix-blend-mode: normal"><g><g><path d="M260.999,181.837c-0.5,0.129 -1.312,-1.987 -1.851,-3.673c0.705,-0.352 1.388,-0.678 2.056,-0.979c0.362,1.831 0.325,4.516 -0.205,4.652z"/><path d="M288.373,179.146c-0.605,2.03 -2.988,5.427 -3.671,5.09c-0.685,-0.34 0.507,-4.258 1.182,-6.15z"/><path d="M282.764,176.741c-0.509,2.062 -2.722,5.587 -3.418,5.288c-0.699,-0.301 0.297,-4.278 0.881,-6.208z"/><path d="M274.044,180.492c-0.673,-0.178 -0.321,-3.674 -0.004,-5.782c1.062,0.063 1.838,0.209 2.661,0.37c-0.366,2.161 -1.965,5.594 -2.657,5.412z"/><path d="M271.182,174.262c0,0.095 -0.004,0.196 -0.004,0.196c0,0 0,-0.053 0.004,-0.196c-0.193,2.513 -1.218,5.528 -1.83,5.45c-0.572,-0.071 -0.647,-2.782 -0.603,-4.708c0,0 0.032,-0.902 0,0c0.033,-0.902 2.433,-0.742 2.433,-0.742z"/><path d="M264.625,180.527c-0.55,0.016 -0.962,-2.422 -1.175,-4.308c0.771,-0.271 1.544,-0.503 2.333,-0.701c0.055,1.996 -0.556,4.996 -1.158,5.009z"/><path d="M293.835,188.802c-0.489,-0.521 1.456,-3.3 2.731,-4.935c0.801,0.461 1.625,0.876 2.234,1.631c-1.277,1.67 -4.445,3.859 -4.965,3.304z"/><path d="M293.77,182.033c-0.894,1.902 -3.734,4.854 -4.358,4.406c-0.626,-0.45 1.112,-4.121 2.056,-5.875z"/><path d="M297.618,192.531c-0.382,-0.538 1.479,-2.623 2.93,-4.068c0.396,0.85 0.741,1.719 1.093,2.598c-1.621,1.084 -3.683,1.95 -4.023,1.47z"/><path d="M290.243,187.48c0.511,0.062 0.604,2.354 0.573,4.137c-0.771,0.068 -1.517,0.124 -2.237,0.158c0.235,-1.851 1.122,-4.362 1.664,-4.295z"/><path d="M263.857,184.396c0.668,-1.552 2.867,-4.002 3.381,-3.662c0.514,0.344 -0.785,3.336 -1.494,4.77z"/><path d="M268.018,186.086c0.735,-1.979 3.33,-5.188 3.989,-4.799c0.658,0.389 -0.78,4.208 -1.575,6.045z"/><path d="M276.966,183.396c0.614,0.349 -0.509,3.646 -1.289,5.609c-1.017,-0.34 -1.735,-0.683 -2.499,-1.054c0.838,-1.998 3.157,-4.91 3.788,-4.555z"/><path d="M278.34,189.898c0.021,-0.094 0.049,-0.189 0.049,-0.189c0,0 -0.014,0.05 -0.049,0.189c0.751,-2.391 2.419,-5.045 2.996,-4.812c0.539,0.221 0.008,2.872 -0.47,4.729c0,0 -0.233,0.867 0,0c-0.233,0.867 -2.526,0.083 -2.526,0.083z"/><path d="M285.988,186.671c0.521,0.188 0.14,2.632 -0.26,4.479c-0.812,-0.03 -1.608,-0.1 -2.414,-0.202c0.581,-1.893 2.104,-4.485 2.674,-4.277z"/><path d="M260.341,182.453c0.722,-1.162 2.792,-2.839 3.166,-2.492c0.374,0.348 -1.032,2.588 -1.774,3.648z"/></g><path d="M307.296,176.645c0.165,2.639 0.383,10.846 -3.396,15.867c-9.29,-18.214 -28.95,-23.466 -48.311,-13.693c6.469,10.365 25.61,12.016 36.43,13.578c-5.305,5.731 -17.469,8.171 -24.907,8.999c-12.112,-0.73 -18.049,-5.372 -22.621,-9.454c-4.159,-3.714 -22.786,-11.57 -35.255,2.709c6.096,7.903 6.597,16.86 4.796,21.388c-0.642,1.612 -2.156,6.127 -4.58,7.192c-1.748,0.767 -4.193,-1.355 -5.185,-2.709c-4.105,-5.625 -3.144,-15.009 -2.068,-22.28c-2.55,0.978 -13.437,4.896 -22.385,0.006c-2.073,-1.133 -6.557,-3.888 -7.388,-6.306c-2.581,-7.503 15.197,-7.432 18.664,-7.146c4.122,0.344 9.307,2.559 12.659,5.139l0.302,-0.232c2.367,-5.96 11.497,-21.355 18.362,-25.217c-2.171,-4.293 -13.983,-22.829 -9.458,-26.724c3.25,-2.796 25.961,11.727 26.678,11.441c0.207,-0.083 0.444,-0.327 0.613,-0.607c11.835,-12.247 34.07,-20.865 54.747,-1.809c8.698,8.017 11.557,17.736 12.303,29.858z"/><path d="M310.273,180.838c-0.426,4.561 -2.051,11.092 -7.345,14.944c-11.341,-21.948 -30.997,-22.182 -43.835,-16.399c4.843,7.993 32.343,11.003 34.482,11.8c0.266,0.102 1.027,0.744 0.863,1.027c-4.034,6.994 -25.798,13.456 -31.43,12.018l-0.002,0.002c-5.354,-0.73 -10.006,-0.73 -22.388,-11.565c-0.743,-0.492 -1.472,-1.018 -2.218,-1.375c-8.753,-4.193 -18.724,-2.939 -26.381,3.832c3.918,5.496 6.368,12.202 4.477,19.236c-0.987,3.668 -4.6,13.142 -9.333,12.095c-1.813,-0.401 -4.418,-4.488 -5.271,-6.164c-3.198,-6.289 -3.484,-12.506 -1.858,-19.38c-0.783,0.332 -1.52,0.764 -2.29,1.121c-3.262,1.515 -8.384,0.937 -11.839,0.326c-5.075,-0.897 -14.968,-5.616 -15.857,-11.86c-1.064,-7.492 15.782,-9.272 20.003,-8.405c4.587,0.944 8.984,1.158 12.537,4.762c3.627,-9.243 11.446,-19.204 17.016,-23.485c-3.131,-4.868 -8.764,-15.117 -10.062,-20.889c-0.524,-2.332 -0.497,-6.728 1.771,-7.845c5.384,-2.654 23.544,8.448 28.098,12.151c10.97,-14.224 28.767,-14.973 34.894,-13.928c24.627,4.203 38.14,24.793 35.968,47.981zM307.296,176.648c-0.746,-12.124 -3.605,-21.843 -12.303,-29.86c-20.677,-19.056 -42.912,-10.438 -54.747,1.809c-0.169,0.28 -0.405,0.524 -0.613,0.607c-0.717,0.286 -23.428,-14.237 -26.678,-11.441c-4.525,3.895 7.287,22.431 9.458,26.724c-6.865,3.862 -15.995,19.257 -18.362,25.217l-0.302,0.232c-3.352,-2.58 -8.537,-4.795 -12.659,-5.139c-3.467,-0.287 -21.245,-0.358 -18.664,7.146c0.831,2.418 5.315,5.173 7.388,6.306c8.948,4.89 19.835,0.972 22.385,-0.006c-1.076,7.27 -2.037,16.655 2.068,22.28c0.992,1.355 3.437,3.476 5.185,2.709c2.424,-1.065 3.938,-5.58 4.58,-7.192c1.801,-4.529 1.3,-13.486 -4.796,-21.388c12.469,-14.279 31.096,-6.423 35.255,-2.709c4.572,4.082 10.509,8.724 22.622,9.455c7.438,-0.828 19.601,-3.268 24.907,-8.999c-10.821,-1.563 -29.961,-3.213 -36.43,-13.578c19.361,-9.773 39.021,-4.521 48.31,13.693c3.78,-5.022 3.561,-13.228 3.396,-15.866z"/><path d="M249.342,184.682c-4.48,-5.018 -1.303,-17.28 2.904,-21.322c0.896,-0.861 3.033,-2.784 3.663,-2.136c1.161,1.2 -0.774,1.91 -1.574,2.76c-3.526,3.747 -5.433,10.559 -5.067,15.809c0.094,1.342 0.742,2.55 1.162,3.723c0.425,1.196 -0.459,1.87 -1.088,1.166z"/><path d="M244.834,164.617c-0.734,1.685 -1.057,1.944 -1.576,3.455c-1.666,4.823 -0.98,7.964 0.699,11.708c0.412,0.913 -0.096,1.897 -1.018,1.388c-1.9,-1.048 -2.066,-3.694 -2.398,-5.714c-0.379,-3.38 0.577,-8.126 2.107,-11.333c0.977,-2.044 3.029,-1.435 2.186,0.496z"/></g><g><path d="M248.014,190.857c-0.046,-0.351 -0.174,-1.035 -0.431,-1.396c1.892,-0.694 9.834,-2.874 15.271,6.86c-2.041,-0.889 -2.597,3.013 -3.371,4.146c-3.446,5.03 -10.242,8.607 -16.057,7.895c-1.224,-0.153 -3.91,-0.334 -4.494,-1.721c-1.145,-2.718 10.088,-7.976 9.082,-15.784z"/><path d="M263.881,199.756c-1.207,3.782 -5.447,6.185 -9.456,8.246c-2.23,1.149 -4.512,1.803 -6.974,2.18c-2.56,0.39 -13.536,0.254 -13.341,-3.896c0.174,-3.684 10.885,-6.816 12.592,-16.747c0.392,-0.451 0.677,-0.367 0.881,-0.08c0.257,0.362 0.385,1.045 0.431,1.396c1.005,7.809 -10.227,13.067 -9.082,15.785c0.584,1.387 3.27,1.569 4.494,1.721c5.816,0.711 12.612,-2.866 16.057,-7.895c0.774,-1.132 1.33,-5.035 3.371,-4.146c0.932,0.407 1.319,2.522 1.027,3.436z"/></g><g><path d="M277.956,132.449c1.281,3.052 -0.312,6.039 -2.869,7.894c-2.866,2.078 -6.854,2.69 -8.979,0.186c-2.336,-2.754 -0.631,-7.452 2.274,-10.146c2.944,-2.725 7.964,-1.763 9.574,2.066z"/><path d="M272.723,135.726c0.237,-1.46 1.764,-2.39 3.408,-2.077c1.646,0.314 2.785,1.752 2.547,3.212c-0.238,1.46 -1.765,2.39 -3.408,2.076c-1.646,-0.313 -2.788,-1.75 -2.547,-3.211z"/><path d="M262.96,139.928c-2.597,-6.87 3.605,-14.342 10.089,-13.44c2.853,0.397 6.381,3.042 7.199,6.16c2.943,11.232 -14.166,15.543 -17.288,7.28zM277.954,132.449c-1.609,-3.829 -6.629,-4.791 -9.573,-2.066c-2.905,2.694 -4.61,7.392 -2.274,10.146c2.125,2.504 6.114,1.892 8.979,-0.186c2.557,-1.855 4.15,-4.842 2.868,-7.894z"/><path d="M275.777,128.05c-0.656,0.135 -1.688,-0.352 -2.318,-0.583c-2.503,-0.919 -7.542,-0.8 -9.352,-2.114c-0.205,-0.149 -0.293,-0.611 -0.17,-0.839c0.994,-1.856 10.41,1.827 11.715,2.944c0.15,0.127 0.183,0.415 0.125,0.592z"/></g><g><path d="M301.223,144.361c0.442,2.539 -0.342,5.438 -2.445,5.828c-5.68,1.054 -7.293,-7.4 -3.346,-9.064c2.818,-1.187 5.304,0.438 5.791,3.236z"/><path d="M298.07,146.016c0.447,-0.988 1.709,-1.313 2.822,-0.727c1.111,0.586 1.651,1.862 1.207,2.851c-0.445,0.989 -1.709,1.313 -2.82,0.727c-1.113,-0.587 -1.653,-1.863 -1.209,-2.851z"/><path d="M300.979,151.815c-7.266,4.564 -13.263,-6.915 -7.182,-12.083c1.687,-1.435 4.761,-1.364 6.573,-0.295c4.105,2.427 4.859,9.708 0.609,12.378zM301.222,144.361c-0.486,-2.798 -2.973,-4.423 -5.791,-3.236c-3.947,1.664 -2.334,10.118 3.346,9.064c2.103,-0.39 2.887,-3.289 2.445,-5.828z"/><path d="M296.79,138.762c1.147,-0.363 8.315,-0.078 8.514,1.443c0.025,0.187 -0.15,0.468 -0.322,0.507c-1.525,0.347 -4.839,-1.192 -6.731,-1.308c-0.48,-0.029 -1.285,-0.005 -1.687,-0.285c0.006,-0.135 0.101,-0.316 0.226,-0.357z"/></g></g></g></svg>